<mxfile host="app.diagrams.net" modified="2023-03-23T21:18:54.188Z" agent="Mozilla/5.0 (Macintosh; Intel Mac OS X 10_15_7) AppleWebKit/537.36 (KHTML, like Gecko) Chrome/111.0.0.0 Safari/537.36" etag="GuyvRDPy8ygg87W-oSYG" version="21.1.0" type="device">
  <diagram name="Page-1" id="ohbFDob1hToep83ffyxv">
    <mxGraphModel dx="1137" dy="582" grid="1" gridSize="10" guides="1" tooltips="1" connect="1" arrows="1" fold="1" page="1" pageScale="1" pageWidth="850" pageHeight="1100" math="0" shadow="0">
      <root>
        <mxCell id="0" />
        <mxCell id="1" parent="0" />
        <mxCell id="7F210UR98_wTJYgR5hzf-3" style="edgeStyle=orthogonalEdgeStyle;rounded=0;orthogonalLoop=1;jettySize=auto;html=1;exitX=0.5;exitY=1;exitDx=0;exitDy=0;" edge="1" parent="1" source="7F210UR98_wTJYgR5hzf-2" target="7F210UR98_wTJYgR5hzf-4">
          <mxGeometry relative="1" as="geometry">
            <mxPoint x="425" y="230" as="targetPoint" />
            <Array as="points">
              <mxPoint x="423" y="180" />
              <mxPoint x="423" y="180" />
            </Array>
          </mxGeometry>
        </mxCell>
        <mxCell id="7F210UR98_wTJYgR5hzf-2" value="IS YEAR a LeapYear ?" style="rounded=1;whiteSpace=wrap;html=1;" vertex="1" parent="1">
          <mxGeometry x="345" y="140" width="160" height="30" as="geometry" />
        </mxCell>
        <mxCell id="7F210UR98_wTJYgR5hzf-5" style="edgeStyle=orthogonalEdgeStyle;rounded=0;orthogonalLoop=1;jettySize=auto;html=1;exitX=1;exitY=0.5;exitDx=0;exitDy=0;" edge="1" parent="1" source="7F210UR98_wTJYgR5hzf-4" target="7F210UR98_wTJYgR5hzf-6">
          <mxGeometry relative="1" as="geometry">
            <mxPoint x="520" y="290" as="targetPoint" />
          </mxGeometry>
        </mxCell>
        <mxCell id="7F210UR98_wTJYgR5hzf-9" style="edgeStyle=orthogonalEdgeStyle;rounded=0;orthogonalLoop=1;jettySize=auto;html=1;exitX=0;exitY=0.5;exitDx=0;exitDy=0;" edge="1" parent="1" source="7F210UR98_wTJYgR5hzf-4">
          <mxGeometry relative="1" as="geometry">
            <mxPoint x="360" y="280" as="targetPoint" />
          </mxGeometry>
        </mxCell>
        <mxCell id="7F210UR98_wTJYgR5hzf-4" value="Divisble by&lt;br&gt;4?" style="rhombus;whiteSpace=wrap;html=1;" vertex="1" parent="1">
          <mxGeometry x="380" y="190" width="85" height="80" as="geometry" />
        </mxCell>
        <mxCell id="7F210UR98_wTJYgR5hzf-7" style="edgeStyle=orthogonalEdgeStyle;rounded=0;orthogonalLoop=1;jettySize=auto;html=1;exitX=1;exitY=0.5;exitDx=0;exitDy=0;" edge="1" parent="1" source="7F210UR98_wTJYgR5hzf-6">
          <mxGeometry relative="1" as="geometry">
            <mxPoint x="600" y="380" as="targetPoint" />
            <Array as="points">
              <mxPoint x="600" y="320" />
            </Array>
          </mxGeometry>
        </mxCell>
        <mxCell id="7F210UR98_wTJYgR5hzf-11" style="edgeStyle=orthogonalEdgeStyle;rounded=0;orthogonalLoop=1;jettySize=auto;html=1;exitX=0;exitY=0.5;exitDx=0;exitDy=0;" edge="1" parent="1" source="7F210UR98_wTJYgR5hzf-6">
          <mxGeometry relative="1" as="geometry">
            <mxPoint x="440" y="350" as="targetPoint" />
            <Array as="points">
              <mxPoint x="440" y="320" />
            </Array>
          </mxGeometry>
        </mxCell>
        <mxCell id="7F210UR98_wTJYgR5hzf-6" value="Divisble by&amp;nbsp;&lt;br&gt;100" style="rhombus;whiteSpace=wrap;html=1;" vertex="1" parent="1">
          <mxGeometry x="470" y="280" width="90" height="80" as="geometry" />
        </mxCell>
        <mxCell id="7F210UR98_wTJYgR5hzf-16" style="edgeStyle=orthogonalEdgeStyle;rounded=0;orthogonalLoop=1;jettySize=auto;html=1;exitX=0;exitY=0.5;exitDx=0;exitDy=0;" edge="1" parent="1" source="7F210UR98_wTJYgR5hzf-8">
          <mxGeometry relative="1" as="geometry">
            <mxPoint x="500" y="470.0000000000001" as="targetPoint" />
          </mxGeometry>
        </mxCell>
        <mxCell id="7F210UR98_wTJYgR5hzf-18" style="edgeStyle=orthogonalEdgeStyle;rounded=0;orthogonalLoop=1;jettySize=auto;html=1;exitX=1;exitY=0.5;exitDx=0;exitDy=0;" edge="1" parent="1" source="7F210UR98_wTJYgR5hzf-8">
          <mxGeometry relative="1" as="geometry">
            <mxPoint x="700" y="470.0000000000001" as="targetPoint" />
          </mxGeometry>
        </mxCell>
        <mxCell id="7F210UR98_wTJYgR5hzf-8" value="Divisible&lt;br&gt;&amp;nbsp;by&lt;br&gt;400" style="rhombus;whiteSpace=wrap;html=1;" vertex="1" parent="1">
          <mxGeometry x="560" y="380" width="80" height="80" as="geometry" />
        </mxCell>
        <mxCell id="7F210UR98_wTJYgR5hzf-17" value="Common year" style="rounded=0;whiteSpace=wrap;html=1;fillColor=#fff2cc;strokeColor=#d6b656;" vertex="1" parent="1">
          <mxGeometry x="450" y="470" width="90" height="30" as="geometry" />
        </mxCell>
        <mxCell id="7F210UR98_wTJYgR5hzf-19" value="LeapYear" style="rounded=0;whiteSpace=wrap;html=1;fillColor=#d5e8d4;strokeColor=#82b366;" vertex="1" parent="1">
          <mxGeometry x="650" y="470" width="90" height="30" as="geometry" />
        </mxCell>
        <mxCell id="7F210UR98_wTJYgR5hzf-20" value="NO" style="text;html=1;strokeColor=none;fillColor=none;align=center;verticalAlign=middle;whiteSpace=wrap;rounded=0;" vertex="1" parent="1">
          <mxGeometry x="342" y="200" width="60" height="30" as="geometry" />
        </mxCell>
        <mxCell id="7F210UR98_wTJYgR5hzf-21" value="YES" style="text;html=1;strokeColor=none;fillColor=none;align=center;verticalAlign=middle;whiteSpace=wrap;rounded=0;" vertex="1" parent="1">
          <mxGeometry x="465" y="200" width="60" height="30" as="geometry" />
        </mxCell>
        <mxCell id="7F210UR98_wTJYgR5hzf-22" value="YES" style="text;html=1;strokeColor=none;fillColor=none;align=center;verticalAlign=middle;whiteSpace=wrap;rounded=0;" vertex="1" parent="1">
          <mxGeometry x="560" y="290" width="60" height="30" as="geometry" />
        </mxCell>
        <mxCell id="7F210UR98_wTJYgR5hzf-23" value="NO" style="text;html=1;strokeColor=none;fillColor=none;align=center;verticalAlign=middle;whiteSpace=wrap;rounded=0;" vertex="1" parent="1">
          <mxGeometry x="425" y="290" width="60" height="30" as="geometry" />
        </mxCell>
        <mxCell id="7F210UR98_wTJYgR5hzf-24" value="YES" style="text;html=1;strokeColor=none;fillColor=none;align=center;verticalAlign=middle;whiteSpace=wrap;rounded=0;" vertex="1" parent="1">
          <mxGeometry x="650" y="390" width="60" height="30" as="geometry" />
        </mxCell>
        <mxCell id="7F210UR98_wTJYgR5hzf-25" value="NO" style="text;html=1;strokeColor=none;fillColor=none;align=center;verticalAlign=middle;whiteSpace=wrap;rounded=0;" vertex="1" parent="1">
          <mxGeometry x="490" y="390" width="60" height="30" as="geometry" />
        </mxCell>
        <mxCell id="7F210UR98_wTJYgR5hzf-26" value="LeapYear" style="rounded=0;whiteSpace=wrap;html=1;fillColor=#d5e8d4;strokeColor=#82b366;" vertex="1" parent="1">
          <mxGeometry x="395" y="350" width="90" height="30" as="geometry" />
        </mxCell>
        <mxCell id="7F210UR98_wTJYgR5hzf-28" value="&lt;meta charset=&quot;utf-8&quot;&gt;&lt;p style=&quot;box-sizing: inherit; outline-color: inherit; margin: 1rem 0px 0px; padding: 0px; overflow-wrap: break-word;&quot;&gt;To determine whether a year is a leap year, follow these steps:&lt;/p&gt;&lt;ol style=&quot;box-sizing: inherit; outline-color: inherit; margin: 16px 0px 16px 38px; padding: 0px;&quot;&gt;&lt;li style=&quot;box-sizing: inherit; outline-color: inherit; margin: 0px; padding: 0px; outline-style: initial; outline-width: 0px; list-style: decimal;&quot;&gt;If the year is evenly divisible by 4, go to step 2. Otherwise, go to step 5.&lt;/li&gt;&lt;li style=&quot;box-sizing: inherit; outline-color: inherit; margin: 0px; padding: 0px; outline-style: initial; outline-width: 0px; list-style: decimal;&quot;&gt;If the year is evenly divisible by 100, go to step 3. Otherwise, go to step 4.&lt;/li&gt;&lt;li style=&quot;box-sizing: inherit; outline-color: inherit; margin: 0px; padding: 0px; outline-style: initial; outline-width: 0px; list-style: decimal;&quot;&gt;If the year is evenly divisible by 400, go to step 4. Otherwise, go to step 5.&lt;/li&gt;&lt;li style=&quot;box-sizing: inherit; outline-color: inherit; margin: 0px; padding: 0px; outline-style: initial; outline-width: 0px; list-style: decimal;&quot;&gt;The year is a leap year (it has 366 days).&lt;/li&gt;&lt;li style=&quot;box-sizing: inherit; outline-color: inherit; margin: 0px; padding: 0px; outline-style: initial; outline-width: 0px; list-style: decimal;&quot;&gt;The year is not a leap year (it has 365 days).&lt;/li&gt;&lt;/ol&gt;&lt;div style=&quot;box-sizing: inherit; outline-color: inherit; position: relative;&quot; data-heading-level=&quot;h3&quot; class=&quot;heading-wrapper&quot;&gt;&lt;a style=&quot;box-sizing: inherit; outline-color: inherit; color: var(--theme-hyperlink); cursor: pointer; overflow-wrap: normal; text-decoration: none; background-color: rgb(23, 23, 23); outline-style: initial; outline-width: 0px; font-family: docons; font-size: 16px; speak: none; font-variant: normal; text-transform: none; text-align: center; direction: ltr; -webkit-font-smoothing: antialiased; font-style: normal; font-weight: 400; line-height: 16px; display: inline-block; width: 1px; transition: opacity 0.1s linear 0s; position: absolute; inset-inline-start: -1.875rem; transform: translateY(-50%) scale(1); inset-block-start: 1.1375rem; clip: rect(1px, 1px, 1px, 1px); clip-path: inset(50%); height: 1px; opacity: 0; border: 0px; margin: -1px; padding: 0px; overflow: hidden; letter-spacing: normal; orphans: 2; text-indent: 0px; widows: 2; word-spacing: 0px; -webkit-text-stroke-width: 0px;&quot; aria-label=&quot;Section titled: Formula to determine whether a year is a leap year&quot; href=&quot;https://learn.microsoft.com/en-us/office/troubleshoot/excel/determine-a-leap-year#formula-to-determine-whether-a-year-is-a-leap-year&quot; class=&quot;anchor-link docon docon-link&quot;&gt;&lt;/a&gt;&lt;br class=&quot;Apple-interchange-newline&quot;&gt;&lt;/div&gt;" style="text;whiteSpace=wrap;html=1;" vertex="1" parent="1">
          <mxGeometry x="65" y="500" width="515" height="230" as="geometry" />
        </mxCell>
        <mxCell id="7F210UR98_wTJYgR5hzf-29" value="Common year" style="rounded=0;whiteSpace=wrap;html=1;fillColor=#fff2cc;strokeColor=#d6b656;" vertex="1" parent="1">
          <mxGeometry x="312" y="280" width="90" height="30" as="geometry" />
        </mxCell>
      </root>
    </mxGraphModel>
  </diagram>
</mxfile>
